<svg id="Layer_3" enable-background="new 0 0 64 64" height="512" viewBox="0 0 64 64" width="512" xmlns="http://www.w3.org/2000/svg"><g><g><path d="m7 14.999h2v24.999h-2z" fill="#815643"/></g><path d="m28 51c0 7.18-4.477 11-10 11s-10-3.82-10-11 4.477-13 10-13 10 5.82 10 13z" fill="#d5cec2"/><path d="m21.684 38.922c-1.141-.588-2.382-.922-3.684-.922-5.523 0-10 5.82-10 13 0 4.344 1.645 7.449 4.164 9.232 6.061-2.897 10.259-9.066 10.259-16.232 0-1.765-.266-3.466-.739-5.078z" fill="#e7e4dd"/><path d="m13.803 61.151c-3.356.141-6.754-1.577-9.293-5.57-3.852-6.059-3.197-13.372 1.463-16.336 2.461-1.565 5.546-1.604 8.477-.4l-.001-.001c-3.769 1.861-6.449 6.602-6.449 12.156 0 5.228 2.374 8.675 5.797 10.163z" fill="#cbc3b6"/><path d="m55 25.412v-13.412c0-5.523-4.477-10-10-10-5.523 0-10 4.477-10 10v13.411c0 3.253-1.158 6.384-3.209 8.909-2.682 3.302-4.151 7.625-3.716 12.304.772 8.29 7.685 14.911 16 15.352 9.809.519 17.925-7.281 17.925-16.976 0-4.085-1.447-7.827-3.852-10.754-2.044-2.488-3.148-5.614-3.148-8.834z" fill="#78b75b"/><path d="m50.423 25c0-8.677-3.459-16.541-9.066-22.305-3.719 1.457-6.357 5.069-6.357 9.305v13.411c0 3.253-1.158 6.384-3.209 8.909-2.682 3.302-4.151 7.625-3.716 12.304.268 2.882 1.292 5.553 2.845 7.842 11.463-4.868 19.503-16.228 19.503-29.466z" fill="#96cc7f"/><circle cx="45" cy="45" fill="#c16b3f" r="9"/><path d="m48.241 36.611c-1.007-.389-2.097-.611-3.241-.611-4.971 0-9 4.029-9 9 0 2.043.689 3.922 1.836 5.432 4.627-3.537 8.256-8.307 10.405-13.821z" fill="#e39854"/><path d="m31.116 35.213c-.602-2.508-1.864-4.818-3.704-6.659l-9.483-9.483c-3.905-3.905-3.905-10.237 0-14.142 3.905-3.905 10.237-3.905 14.142 0l3.563 3.563-.001-.001c-.409 1.092-.633 2.274-.633 3.509v13.411c0 3.253-1.158 6.384-3.209 8.909-.235.289-.461.587-.677.891z" fill="#78b75b"/><circle cx="18" cy="52" fill="#f2c351" r="6"/><g><path d="m51.999 44.998h-2c0-2.757-2.243-4.999-5-4.999v-2c3.86 0 7 3.14 7 6.999z" fill="#fadfb2"/></g><g><path d="m52.999 11.998h-2c0-3.308-2.691-5.999-5.999-5.999v-2c4.411 0 7.999 3.588 7.999 7.999z" fill="#669e4f"/></g><g><path d="m29.192 7.757c-2.339-2.34-6.146-2.34-8.485 0l-1.415-1.415c3.12-3.117 8.194-3.119 11.314 0z" fill="#96cc7f"/></g><path d="m8 26c-3.314 0-6-2.686-6-6v-2c3.314 0 6 2.686 6 6z" fill="#976947"/><path d="m8 26c3.314 0 6-2.686 6-6v-2c-3.314 0-6 2.686-6 6z" fill="#c18e59"/><path d="m8 35c-3.314 0-6-2.686-6-6v-2c3.314 0 6 2.686 6 6z" fill="#976947"/><path d="m8 35c3.314 0 6-2.686 6-6v-2c-3.314 0-6 2.686-6 6z" fill="#c18e59"/><path d="m7.575 17c-2.099-2.209-2.099-5.791 0-8l2.851-3c2.099 2.209 2.099 5.791 0 8z" fill="#c18e59"/><path d="m20 35h-4c0-2.209 1.791-4 4-4h4c0 2.209-1.791 4-4 4z" fill="#976947"/><path d="m18 46c-3.314 0-6 2.686-6 6 0 2.647 1.717 4.89 4.096 5.686 2.999-2.56 5.153-6.081 5.966-10.093-1.069-.986-2.493-1.593-4.062-1.593z" fill="#f7d881"/><g><path d="m18 44.999c-3.86 0-7 3.14-7 7 0 3.859 3.14 6.999 7 6.999 3.859 0 7-3.14 7-6.999 0-3.86-3.141-7-7-7zm0 11.999c-2.757 0-5-2.242-5-4.999 0-2.758 2.243-5 5-5s5 2.242 5 5c0 2.757-2.243 4.999-5 4.999z"/><path d="m58.92 33.609c-1.883-2.292-2.92-5.203-2.92-8.198v-13.412c0-6.065-4.935-10.999-11-10.999-.001 0-.001 0-.002 0-2.938 0-5.699 1.144-7.776 3.221-.764.763-1.398 1.621-1.899 2.544l-2.544-2.544c-4.289-4.287-11.268-4.287-15.557 0-4.289 4.289-4.289 11.268 0 15.557l9.483 9.483c1.582 1.582 2.722 3.571 3.325 5.77-1.632 2.437-2.631 5.21-2.931 8.112-1.981-3.705-5.32-6.143-9.098-6.143-1.254 0-2.455.281-3.578.776-1.841-.685-3.695-.903-5.422-.659v-1.196c3.386-.488 6-3.401 6-6.921l-.001-2.001c0-.265-.105-.52-.293-.707s-.443-.294-.707-.294v.001c-1.958 0-3.728.811-4.999 2.11v-1.189c3.386-.488 6-3.401 6-6.921l-.001-2.001c0-.265-.105-.52-.293-.707s-.443-.293-.707-.293v.001c-1.958 0-3.728.811-5 2.111v-2.111h-.047l2.197-2.312c2.457-2.585 2.457-6.792 0-9.378-.188-.198-.451-.311-.725-.311s-.537.112-.725.311l-2.851 3.002c-2.457 2.585-2.457 6.792 0 9.377.043.045.101.068.151.104v1.318c-1.272-1.3-3.042-2.11-5-2.11-.553 0-1 .447-1 1v2c0 3.519 2.614 6.432 6 6.919v1.191c-1.272-1.3-3.042-2.11-5-2.11-.553 0-1 .447-1 1v2c0 3.519 2.614 6.432 6 6.919v1.716c-.542.208-1.07.451-1.563.764-2.522 1.604-4.079 4.36-4.384 7.762-.296 3.305.632 6.84 2.613 9.955 2.487 3.91 5.933 6.042 9.744 6.042.053 0 .106-.002.159-.003 1.324.548 2.812.843 4.432.843 5.953 0 10.126-3.955 10.869-10.023 2.822 5.662 8.552 9.649 15.153 9.998.332.018.661.026.99.026 4.631 0 8.993-1.733 12.372-4.938 3.62-3.434 5.615-8.073 5.615-13.062 0-4.142-1.449-8.187-4.08-11.39zm-49.92-.611c0-2.413 1.72-4.434 4-4.898v.9c0 2.414-1.721 4.435-4 4.899zm0-9c0-2.413 1.72-4.434 4-4.898v.9c0 2.414-1.721 4.435-4 4.899zm-.701-14.31 2.042-2.148c1.058 1.805.845 4.206-.641 5.77l-2.042 2.148c-1.058-1.805-.845-4.206.641-5.77zm-1.299 15.211c-2.28-.464-4-2.485-4-4.899v-.9c2.279.465 4 2.484 4 4.898zm0 9c-2.28-.464-4-2.485-4-4.899v-.9c2.279.465 4 2.484 4 4.898zm11.636-15.537c-1.7-1.699-2.636-3.96-2.636-6.363s.936-4.664 2.636-6.363c3.509-3.51 9.219-3.51 12.728 0l3.122 3.121c-.319 1.037-.486 2.126-.486 3.242v13.41c0 2.712-.893 5.393-2.512 7.644-.753-1.959-1.896-3.733-3.369-5.207zm-13.282 36.681c-1.746-2.745-2.565-5.836-2.309-8.703.248-2.77 1.479-4.989 3.464-6.252 1.584-1.008 3.56-1.309 5.616-.905-3.074 2.486-5.125 6.847-5.125 11.815 0 3.309.949 6.107 2.606 8.174-1.598-.856-3.052-2.242-4.252-4.129zm12.646 5.955c-5.468 0-9-3.925-9-10 0-6.616 4.037-11.999 9-11.999 4.962 0 9 5.383 9 11.999 0 6.075-3.533 10-9 10zm38.007-4.388c-3.216 3.05-7.431 4.607-11.879 4.365-7.856-.415-14.329-6.626-15.057-14.445-.392-4.209.85-8.322 3.496-11.581 2.214-2.724 3.433-6.112 3.433-9.54v-13.41c0-2.404.936-4.664 2.636-6.364 1.699-1.699 3.959-2.635 6.362-2.635h.002c4.962 0 9 4.036 9 8.999v13.412c0 3.457 1.198 6.819 3.375 9.468 2.337 2.847 3.625 6.44 3.625 10.119 0 4.436-1.773 8.56-4.993 11.612z"/><path d="m45 34.999c-5.514 0-10 4.485-10 10 0 5.514 4.486 9.999 10 9.999s10-4.485 10-9.999c0-5.515-4.486-10-10-10zm0 17.999c-4.412 0-8-3.588-8-7.999 0-4.412 3.588-8 8-8 4.411 0 8 3.588 8 8 0 4.411-3.589 7.999-8 7.999z"/><path d="m45 37.999v2c2.757 0 5 2.242 5 4.999h2c0-3.859-3.141-6.999-7-6.999z"/><path d="m50.999 11.998h2c0-4.411-3.588-7.999-8-7.999v2c3.309 0 6 2.691 6 5.999z"/><path d="m19.292 6.342 1.415 1.415c2.339-2.34 6.146-2.34 8.485 0l1.415-1.415c-3.12-3.119-8.195-3.117-11.315 0z"/><path d="m16 35.998h4c2.756 0 4.999-2.242 5-4.999 0-.266-.105-.52-.293-.707-.188-.188-.442-.293-.707-.293h-4c-1.336 0-2.591.52-3.536 1.464s-1.464 2.2-1.464 3.536c0 .552.448.999 1 .999zm1.878-3.121c.567-.566 1.32-.878 2.121-.878h2.829c-.413 1.164-1.525 1.999-2.828 1.999h-2.831c.147-.417.387-.799.709-1.121z"/></g></g></svg>