<?xml version="1.0" encoding="iso-8859-1"?>
<!-- Generator: Adobe Illustrator 19.0.0, SVG Export Plug-In . SVG Version: 6.00 Build 0)  -->
<svg version="1.1" id="Capa_1" xmlns="http://www.w3.org/2000/svg" xmlns:xlink="http://www.w3.org/1999/xlink" x="0px" y="0px"
	 viewBox="0 0 511.988 511.988" style="enable-background:new 0 0 511.988 511.988;" xml:space="preserve">
<path style="fill:#4CAF50;" d="M485.5,12.052c-1.44-5.632-5.888-9.952-11.456-11.424c-5.696-1.504-11.616,0.256-15.648,4.416
	c-0.288,0.288-27.424,27.776-118.048,62.528c-31.776,12.16-54.88,35.232-65.088,64.896c-8.32,24.288-11.584,64.32,20.32,117.12
	c1.792,2.976,4.512,5.28,7.744,6.592c0.448,0.16,19.328,7.424,46.272,7.424c36.352,0,87.36-13.184,127.712-74.56
	c0.32-0.448,0.608-0.928,0.832-1.408C512.732,120.724,486.62,16.468,485.5,12.052z"/>
<path style="fill:#388E3C;" d="M256.348,511.988c-7.84,0-14.592-5.728-15.808-13.536C179.228,104.596,26.908,31.284,25.372,30.612
	c-8.032-3.68-11.584-13.152-7.968-21.216C21.052,1.364,30.556-2.22,38.588,1.428c6.304,2.88,142.56,68.288,214.848,392.48
	c15.36-78.848,48.416-186.752,118.944-260.896c6.112-6.4,16.256-6.624,22.624-0.576c6.4,6.08,6.656,16.224,0.576,22.624
	C283.036,273.332,272.444,494.452,272.348,496.692c-0.352,8.192-6.88,14.784-15.072,15.264
	C256.956,511.988,256.668,511.988,256.348,511.988z"/>
<g>
</g>
<g>
</g>
<g>
</g>
<g>
</g>
<g>
</g>
<g>
</g>
<g>
</g>
<g>
</g>
<g>
</g>
<g>
</g>
<g>
</g>
<g>
</g>
<g>
</g>
<g>
</g>
<g>
</g>
</svg>
